<svg width="22" height="22" viewBox="0 0 22 22" fill="none" xmlns="http://www.w3.org/2000/svg">
<path d="M20.4599 9.94171L19.8902 7.66286C20.046 7.62977 20.1628 7.49158 20.1628 7.32603V6.9586C20.1628 6.16084 19.5138 5.51184 18.7161 5.51184H16.1211V4.75396C16.1211 4.3614 15.8018 4.04205 15.4092 4.04205H2.18161C1.78905 4.04205 1.4697 4.3614 1.4697 4.75396V11.0003C1.4697 11.1906 1.62392 11.3448 1.81418 11.3448C2.00441 11.3448 2.15866 11.1906 2.15866 11.0003V4.75396C2.15866 4.74128 2.16893 4.73101 2.18161 4.73101H15.4092C15.4218 4.73101 15.4321 4.74128 15.4321 4.75396V11.0004C15.4321 11.1906 15.5863 11.3449 15.7766 11.3449C15.9668 11.3449 16.1211 11.1907 16.1211 11.0004V10.6099H20.1846C20.1849 10.6099 20.1852 10.61 20.1855 10.61C20.1858 10.61 20.1861 10.61 20.1864 10.61C20.6864 10.6103 21.111 10.9385 21.2569 11.3907H20.1857C19.9955 11.3907 19.8413 11.545 19.8413 11.7352V12.4701C19.8413 13.0652 20.3254 13.5494 20.9206 13.5494H21.311V15.065H20.4103C20.1144 14.2107 19.3022 13.5953 18.3486 13.5953C17.3949 13.5953 16.5827 14.2107 16.2868 15.065H16.121V12.47C16.121 12.2798 15.9668 12.1256 15.7765 12.1256C15.5863 12.1256 15.432 12.2798 15.432 12.47V15.065H8.28511C7.98922 14.2106 7.17707 13.5952 6.22338 13.5952C5.26969 13.5952 4.45749 14.2106 4.16165 15.065H2.18161C2.16893 15.065 2.15866 15.0547 2.15866 15.042V14.2842H3.65136C3.84158 14.2842 3.99584 14.13 3.99584 13.9397C3.99584 13.7494 3.84162 13.5952 3.65136 13.5952H0.34448C0.154258 13.5952 0 13.7494 0 13.9397C0 14.13 0.154215 14.2842 0.34448 14.2842H1.46975V15.042C1.46975 15.4346 1.78909 15.7539 2.18165 15.7539H4.04237C4.04229 15.7616 4.04177 15.7692 4.04177 15.7769C4.04177 16.9798 5.02047 17.9585 6.22338 17.9585C7.42629 17.9585 8.40499 16.9798 8.40499 15.7769C8.40499 15.7691 8.40447 15.7616 8.40439 15.7539H16.1676C16.1675 15.7616 16.1669 15.7692 16.1669 15.7769C16.1669 16.9798 17.1456 17.9585 18.3486 17.9585C19.5515 17.9585 20.5302 16.9798 20.5302 15.7769C20.5302 15.7691 20.5297 15.7616 20.5296 15.7539H21.6555C21.8457 15.7539 22 15.5997 22 15.4094V11.7351C22 10.828 21.3307 10.0743 20.4599 9.94171ZM16.1211 6.20076H18.7161C19.1339 6.20076 19.4739 6.54073 19.4739 6.9586V6.98155H16.1211V6.20076ZM16.1211 9.921V7.67046H19.182L19.7446 9.921H16.1211ZM6.22338 17.2696C5.40031 17.2696 4.73069 16.6001 4.73069 15.7769C4.73069 14.9538 5.40031 14.2843 6.22338 14.2843C7.04645 14.2843 7.71607 14.9538 7.71607 15.7769C7.71607 16.6001 7.04645 17.2696 6.22338 17.2696ZM18.3486 17.2696C17.5256 17.2696 16.856 16.6001 16.856 15.7769C16.856 14.9538 17.5256 14.2843 18.3486 14.2843C19.1717 14.2843 19.8413 14.9538 19.8413 15.7769C19.8413 16.6001 19.1717 17.2696 18.3486 17.2696ZM21.3111 12.8604H20.9207C20.7054 12.8604 20.5303 12.6853 20.5303 12.47V12.0796H21.311V12.8604H21.3111Z" fill="white"/>
<path d="M6.22363 15.065C5.83106 15.065 5.51172 15.3844 5.51172 15.7769C5.51172 16.1695 5.83106 16.4888 6.22363 16.4888C6.61619 16.4888 6.93553 16.1695 6.93553 15.7769C6.93553 15.3844 6.61619 15.065 6.22363 15.065Z" fill="white"/>
<path d="M18.3486 15.065C17.9561 15.065 17.6367 15.3844 17.6367 15.7769C17.6367 16.1695 17.9561 16.4888 18.3486 16.4888C18.7412 16.4888 19.0605 16.1695 19.0605 15.7769C19.0605 15.3844 18.7412 15.065 18.3486 15.065Z" fill="white"/>
<path d="M14.3072 13.5948H9.16316C8.97294 13.5948 8.81868 13.749 8.81868 13.9392C8.81868 14.1295 8.97289 14.2837 9.16316 14.2837H14.3072C14.4974 14.2837 14.6517 14.1295 14.6517 13.9392C14.6517 13.749 14.4975 13.5948 14.3072 13.5948Z" fill="white"/>
<path d="M5.48885 12.125H1.07966C0.889434 12.125 0.735176 12.2792 0.735176 12.4695C0.735176 12.6597 0.889391 12.814 1.07966 12.814H5.48885C5.67907 12.814 5.83333 12.6597 5.83333 12.4695C5.83333 12.2792 5.67907 12.125 5.48885 12.125Z" fill="white"/>
<path d="M11.9783 7.44962C11.8438 7.31513 11.6256 7.31513 11.4911 7.44966L8.42781 10.5129L6.83422 8.91936C6.69969 8.78483 6.48158 8.78483 6.34709 8.91936C6.21255 9.0539 6.21255 9.27196 6.34709 9.4065L8.18426 11.2437C8.25151 11.311 8.33968 11.3446 8.42781 11.3446C8.51594 11.3446 8.60415 11.311 8.67135 11.2437L11.9782 7.9368C12.1128 7.80222 12.1128 7.58415 11.9783 7.44962Z" fill="white"/>
</svg>
