<svg width="22" height="22" viewBox="0 0 22 22" fill="none" xmlns="http://www.w3.org/2000/svg">
<g clip-path="url(#clip0_1_128)">
<path d="M5.86639 16.1333H8.79984C9.00227 16.1333 9.16642 15.9691 9.16642 15.7667C9.16642 15.5641 9.00227 15.3999 8.79984 15.3999H5.86639C5.66396 15.3999 5.49981 15.5641 5.49981 15.7667C5.49981 15.9691 5.66396 16.1333 5.86639 16.1333Z" fill="white"/>
<path d="M0.666862 17.6059C0.783516 17.7723 0.919975 17.9666 1.07825 18.2241C1.14254 18.3275 1.21102 18.4323 1.28034 18.5383C1.58045 18.9049 1.77213 19.3482 1.83356 19.818V20.8999C1.83356 21.5075 2.32619 22 2.93363 22H7.33356C7.94117 22 8.43363 21.5075 8.43363 20.8999V19.4333C8.43665 19.298 8.51168 19.1745 8.63052 19.1095C9.34336 18.7429 9.96976 18.2283 10.4676 17.6001H10.6336C10.7655 17.6001 10.8968 17.5824 11.0238 17.5472L12.1634 19.2705C12.7226 20.0427 13.6725 20.4293 14.6119 20.2672C14.7918 20.2366 14.9739 20.3069 15.0864 20.4504L15.785 21.4822C16.1506 22.019 16.8819 22.1583 17.4191 21.7935L21.48 18.9791C21.738 18.8055 21.9161 18.5361 21.9747 18.2307C22.0346 17.9321 21.9737 17.6217 21.8053 17.3679C21.6417 16.9941 21.5908 16.5807 21.6586 16.1784C21.6641 16.0831 21.6692 15.9886 21.6725 15.8958C21.6831 15.5789 21.6645 15.2668 21.6465 14.9644C21.6398 14.8507 21.6333 14.7368 21.6277 14.6235C21.5643 13.1194 21.0856 11.6622 20.245 10.4134L18.0967 7.24174C17.6635 6.57254 16.7825 6.35904 16.0911 6.75583C15.8175 6.92116 15.6062 7.17209 15.4897 7.46968C15.1267 7.19458 14.6559 7.10478 14.217 7.22714C13.778 7.3495 13.4215 7.66975 13.2532 8.09306C12.9232 7.84633 12.5051 7.74948 12.1002 7.82619V1.46664C12.1002 0.656616 11.4436 0 10.6336 0H4.0337C3.22367 0 2.56705 0.656616 2.56705 1.46664V6.28905C2.46014 6.25816 2.3502 6.23953 2.23925 6.23332H2.17429C1.62107 6.23584 1.15714 6.65176 1.09437 7.20129C1.03461 7.70735 0.936592 8.20821 0.80114 8.69949C0.719566 8.96687 0.619865 9.22838 0.502708 9.48199C0.260002 9.95918 0.11515 10.48 0.0765455 11.0139C0.0663068 11.3293 0.0790632 11.6643 0.091316 11.9874C0.102562 12.2881 0.114647 12.5987 0.107429 12.8851C0.102226 13.0783 0.085777 13.3764 0.0678174 13.7126C0.0278699 14.4459 -0.0216449 15.3581 0.0109174 15.7939C0.0181348 16.4547 0.249428 17.0935 0.666862 17.6059ZM12.9892 8.85358L13.4002 9.46001C13.4257 9.49593 13.4575 9.52698 13.494 9.55165C13.5009 9.55635 13.5076 9.56155 13.5149 9.56592C13.5501 9.58774 13.5889 9.60335 13.6293 9.61224H13.6466C13.6656 9.6161 13.6851 9.61845 13.7045 9.61913C13.7205 9.61795 13.7364 9.6156 13.7522 9.61224C13.7643 9.61224 13.7757 9.60956 13.7888 9.60704C13.8324 9.59781 13.8737 9.58052 13.911 9.55602C14.0785 9.44255 14.1225 9.21478 14.0092 9.0471C13.7819 8.71175 13.8697 8.25571 14.205 8.02861C14.5404 7.80135 14.9964 7.88896 15.2235 8.22432L15.6331 8.83662C15.7481 9.00061 15.9731 9.04224 16.139 8.92995C16.3048 8.81766 16.35 8.59325 16.2403 8.42557C16.1274 8.2589 16.0879 8.05295 16.1314 7.8564C16.1749 7.65968 16.2972 7.48949 16.4698 7.38576C16.8278 7.19592 17.2718 7.31291 17.4896 7.65448L19.6379 10.827C20.4021 11.9638 20.8368 13.2898 20.8941 14.6582C20.8996 14.7755 20.9065 14.8925 20.9135 15.0099C20.9312 15.3083 20.9479 15.5903 20.9384 15.8726C20.9355 15.9607 20.9303 16.0502 20.9253 16.14C20.842 16.6949 20.9333 17.262 21.1866 17.7629C21.2529 17.8602 21.2774 17.9801 21.2546 18.0957C21.2318 18.2112 21.1636 18.3127 21.0653 18.3777L17.0049 21.1908C16.803 21.3269 16.5292 21.2742 16.3921 21.073L15.6871 20.0317C15.4196 19.6626 14.9682 19.4741 14.5177 19.5434C13.8542 19.673 13.1751 19.4095 12.7728 18.8661L11.4836 16.9151V16.9111C11.4836 16.9089 11.4799 16.9077 11.4789 16.9055L10.5008 15.4256C10.2321 15.0285 10.2024 14.3495 10.5863 14.0892L10.9936 13.7772L13.4569 17.394C13.5291 17.5062 13.6563 17.5704 13.7895 17.5616C13.9226 17.5529 14.0405 17.4727 14.0973 17.352C14.154 17.2311 14.1409 17.0891 14.0627 16.981L11.4191 13.1018C11.4094 13.0721 11.3956 13.0437 11.3783 13.0177C11.3659 13.0046 11.3525 12.9923 11.3384 12.9811L7.09304 6.75113C6.94651 6.53394 6.92704 6.25497 7.04185 6.01949C7.15682 5.784 7.38845 5.62773 7.64979 5.60944C7.91112 5.59114 8.16239 5.71367 8.30892 5.93086L11.3746 10.3932C11.4483 10.5027 11.575 10.5641 11.7065 10.5542C11.8381 10.5441 11.954 10.4644 12.0104 10.3452C12.0668 10.2259 12.0548 10.0856 11.9789 9.97781L11.7795 9.68727C11.7773 9.68408 11.7773 9.67955 11.7748 9.67636C11.5475 9.341 11.6351 8.88496 11.9705 8.6577C12.3059 8.4306 12.7619 8.51822 12.9892 8.85358ZM9.16695 5.88202L8.91619 5.51762C8.62481 5.0777 8.11942 4.82845 7.59306 4.86453C7.06669 4.90062 6.60024 5.21667 6.37163 5.69235C6.14303 6.16786 6.18751 6.72948 6.48812 7.16319L6.79142 7.60832C5.89495 7.32785 5.35667 6.41393 5.546 5.49379C5.73533 4.57382 6.59067 3.94658 7.52508 4.04292C8.45948 4.1391 9.16914 4.92731 9.16695 5.86674V5.88202ZM9.16695 0.733322V1.10007C9.16695 1.30249 9.0028 1.46664 8.80038 1.46664H5.86692C5.6645 1.46664 5.50034 1.30249 5.50034 1.10007V0.733322H9.16695ZM3.30038 1.46664C3.30038 1.06163 3.62868 0.733322 4.0337 0.733322H4.76702V1.10007C4.76702 1.7075 5.25948 2.19997 5.86692 2.19997H8.80038C9.40781 2.19997 9.90028 1.7075 9.90028 1.10007V0.733322H10.6336C11.0386 0.733322 11.3669 1.06163 11.3669 1.46664V8.21039C11.2392 8.33359 11.1353 8.47945 11.0604 8.64058L9.74888 6.73132C9.84908 6.45404 9.90044 6.16148 9.90028 5.86674C9.90028 4.44911 8.7512 3.30003 7.33356 3.30003C5.9161 3.30003 4.76702 4.44911 4.76702 5.86674C4.76702 7.28421 5.9161 8.43329 7.33356 8.43329H7.35169L10.5782 13.1699L10.1569 13.4934C9.40966 13.9993 9.41822 15.1337 9.89071 15.8323L10.5738 16.8667H4.0337C3.62868 16.8667 3.30038 16.5383 3.30038 16.1333V11.7825C3.73225 10.8441 3.98032 9.83179 4.03152 8.80003H4.0337C4.0337 7.68134 3.68793 7.05057 3.30038 6.69456V1.46664ZM0.799965 13.7525C0.81826 13.4079 0.834877 13.1021 0.840416 12.9037C0.847969 12.5942 0.835884 12.2719 0.824135 11.9599C0.811714 11.6346 0.799965 11.3278 0.809868 11.0381C0.84629 10.5972 0.969826 10.168 1.17359 9.77539C1.30468 9.49139 1.41579 9.19884 1.5066 8.89973C1.65229 8.37135 1.75753 7.83257 1.82148 7.28824C1.84028 7.10696 1.99201 6.96866 2.17429 6.96664H2.23405C2.38813 6.97806 2.53651 7.02959 2.66457 7.11586C2.69361 7.14725 2.72802 7.17326 2.76612 7.19257C3.03367 7.42017 3.30038 7.87604 3.30038 8.80003C3.29803 8.81766 3.29954 8.83545 3.30474 8.8524C3.36785 9.93266 2.58669 11.6801 2.40307 11.7718C2.25016 11.8466 2.16943 12.0173 2.2087 12.183C2.24798 12.3485 2.39686 12.4648 2.56705 12.463V16.1333C2.56705 16.9433 3.22367 17.6001 4.0337 17.6001H9.48385C9.11459 17.9376 8.70672 18.2303 8.26864 18.4719C7.92036 18.6671 7.7035 19.0341 7.70031 19.4333V20.8999C7.70031 21.1025 7.53616 21.2667 7.33356 21.2667H2.93363C2.73121 21.2667 2.56705 21.1025 2.56705 20.8999V19.818C2.51401 19.2027 2.2797 18.6171 1.89349 18.1353C1.82786 18.0356 1.76324 17.9373 1.70315 17.8394C1.53513 17.567 1.39078 17.3627 1.26792 17.185C0.927192 16.7805 0.740883 16.2684 0.742058 15.7395C0.713524 15.3504 0.761528 14.4642 0.799965 13.7525Z" fill="white"/>
<path d="M3.66601 20.5334H4.03275C4.23517 20.5334 4.39933 20.3692 4.39933 20.1666C4.39933 19.9642 4.23517 19.8 4.03275 19.8H3.66601C3.46358 19.8 3.29943 19.9642 3.29943 20.1666C3.29943 20.3692 3.46358 20.5334 3.66601 20.5334Z" fill="white"/>
<path d="M5.49951 20.5334H6.59941C6.802 20.5334 6.96616 20.3692 6.96616 20.1666C6.96616 19.9642 6.802 19.8 6.59941 19.8H5.49951C5.29692 19.8 5.13277 19.9642 5.13277 20.1666C5.13277 20.3692 5.29692 20.5334 5.49951 20.5334Z" fill="white"/>
<path d="M17.2373 20.0715C17.3105 20.0716 17.382 20.0496 17.4426 20.0085L17.7462 19.8031C17.857 19.7307 17.9201 19.6042 17.9114 19.4721C17.9026 19.3398 17.8234 19.2228 17.7039 19.1656C17.5846 19.1084 17.4436 19.12 17.3352 19.196L17.0315 19.4013C16.8981 19.4916 16.8393 19.6584 16.8867 19.8125C16.9338 19.9664 17.0762 20.0716 17.2373 20.0715Z" fill="white"/>
<path d="M18.7547 19.0443C18.8279 19.0443 18.8994 19.0223 18.96 18.9813L20.2665 18.0965C20.3825 18.0265 20.4503 17.8979 20.4429 17.7626C20.4355 17.6272 20.3539 17.507 20.2309 17.4499C20.1079 17.393 19.9635 17.4086 19.8554 17.4904L18.5489 18.3752C18.4151 18.4654 18.3562 18.6324 18.4034 18.7866C18.4507 18.9409 18.5934 19.0461 18.7547 19.0458V19.0443Z" fill="white"/>
</g>
<defs>
<clipPath id="clip0_1_128">
<rect width="22" height="22" fill="white"/>
</clipPath>
</defs>
</svg>
