<svg width="12" height="11" viewBox="0 0 12 11" fill="none" xmlns="http://www.w3.org/2000/svg">
<path d="M11.7862 1.64046C11.7127 1.55422 11.5945 1.5318 11.4979 1.58579C11.3987 1.6342 11.2961 1.67404 11.1909 1.70494C11.3549 1.4797 11.4787 1.22387 11.5561 0.950319C11.5901 0.812673 11.5138 0.671425 11.3856 0.634843C11.3171 0.615307 11.2441 0.62921 11.1861 0.672827C10.8209 0.885038 10.4326 1.04807 10.0302 1.1582C9.20171 0.31869 7.93974 0.214047 7.00099 0.907016C6.27787 1.43192 5.87977 2.33914 5.96323 3.27195C4.39572 3.12855 2.95352 2.29462 1.97941 0.968381C1.92936 0.90339 1.85365 0.867606 1.77521 0.871934C1.69567 0.87706 1.62369 0.924207 1.58304 0.997781C1.25244 1.57798 1.15666 2.27787 1.31784 2.93563C1.40049 3.2736 1.54217 3.59163 1.73535 3.87285C1.64833 3.82711 1.56644 3.77087 1.49129 3.70522C1.38826 3.6155 1.23699 3.63242 1.15339 3.74304C1.11871 3.78895 1.09975 3.84625 1.09972 3.90537C1.114 4.85961 1.60207 5.73295 2.37962 6.19552C2.27472 6.18169 2.17117 6.15788 2.07021 6.12434C1.94317 6.08331 1.80919 6.16061 1.77098 6.297C1.75431 6.3565 1.75821 6.42048 1.78194 6.47715C2.11942 7.28874 2.79409 7.88151 3.60187 8.07612C2.83227 8.54228 1.94607 8.73814 1.06754 8.63628C0.953631 8.62066 0.845711 8.69501 0.811457 8.81268C0.776145 8.92944 0.822357 9.05671 0.921967 9.11701C1.99767 9.80319 3.22138 10.1765 4.47243 10.2002C5.67265 10.1955 6.84487 9.81061 7.84225 9.0938C9.74624 7.73724 10.9329 5.30163 10.7677 3.12239C11.1748 2.79886 11.5279 2.40369 11.8122 1.95359C11.8706 1.85494 11.8599 1.72646 11.7862 1.64046Z" fill="white"/>
</svg>
